<svg width="17" height="16" viewBox="0 0 17 16" fill="none" xmlns="http://www.w3.org/2000/svg">
<path d="M8.24688 11.7625L8.25 11.7594L9.075 12.2L11.7375 13.6219L11.2219 10.5719L11.0719 9.675L11.7188 9.03438L13.9094 6.86875L10.9063 6.425L9.99063 6.29063L9.5875 5.45937L8.25 2.71563L8.24688 2.725V11.7625ZM13.7188 14.8344C13.7813 15.2094 13.625 15.5906 13.3156 15.8125C13.0063 16.0344 12.5969 16.0625 12.2594 15.8844L8.25 13.7437L4.24063 15.8844C3.90313 16.0625 3.49375 16.0344 3.18438 15.8125C2.875 15.5906 2.71875 15.2094 2.78125 14.8344L3.55313 10.2812L0.296878 7.05937C0.0281279 6.79375 -0.068747 6.39687 0.050003 6.0375C0.168753 5.67812 0.478128 5.41563 0.853128 5.35938L5.34063 4.69688L7.35313 0.5625C7.52188 0.21875 7.86875 0 8.25313 0C8.6375 0 8.98438 0.21875 9.15313 0.5625L11.1625 4.69688L15.65 5.35938C16.025 5.41563 16.3375 5.67812 16.4531 6.0375C16.5688 6.39687 16.475 6.79375 16.2063 7.05937L12.95 10.2812L13.7188 14.8344Z" fill="#FACC15"/>
</svg>
