<?xml version="1.0" encoding="iso-8859-1"?>
<!-- Uploaded to: SVG Repo, www.svgrepo.com, Generator: SVG Repo Mixer Tools -->
<svg fill="#000000" height="800px" width="800px" version="1.1" id="Layer_1" xmlns="http://www.w3.org/2000/svg" xmlns:xlink="http://www.w3.org/1999/xlink" 
	 viewBox="0 0 196.119 196.119" xml:space="preserve">
<g>
	<g>
		<g>
			<path d="M194.309,107.398c-14.934-8.444-31.997-12.905-49.347-12.905c-53.147,0-96.582,41.272-98.514,92.711H7.095v7.132h42.826
				h108.905h26.596v-7.132h-22.503c2.149-11.56,10.593-21.59,22.459-26.155c1.299-0.501,2.189-1.713,2.277-3.103
				c0.089-1.389-0.639-2.702-1.865-3.364c-10.743-5.802-24.132-7.086-35.841-3.559c10.058-16.697,25.368-29.728,43.937-37.215
				c1.269-0.512,2.134-1.706,2.225-3.075C196.201,109.37,195.501,108.071,194.309,107.398z M138.851,156.77
				c-0.649,1.407-0.313,3.075,0.834,4.123c1.147,1.052,2.843,1.226,4.182,0.46c9.353-5.384,21.278-6.62,31.671-3.381
				c-10.737,6.543-18.109,17.251-19.915,29.233H53.558c1.927-47.508,42.189-85.579,91.403-85.579
				c13.664,0,27.132,2.977,39.362,8.654C164.18,120.21,148.192,136.493,138.851,156.77z"/>
			<path d="M32.092,73.099c17.695,0,32.092-14.396,32.092-32.092S49.787,8.914,32.092,8.914S0,23.31,0,41.006
				C0,58.702,14.397,73.099,32.092,73.099z M32.092,16.046c13.764,0,24.961,11.199,24.961,24.961s-11.197,24.96-24.961,24.96
				c-13.764,0-24.96-11.199-24.96-24.961C7.132,27.244,18.329,16.046,32.092,16.046z"/>
			<path d="M67.75,41.006c0,1.971,1.597,3.566,3.566,3.566h14.263c1.969,0,3.566-1.595,3.566-3.566c0-1.971-1.597-3.566-3.566-3.566
				H71.316C69.347,37.441,67.75,39.035,67.75,41.006z"/>
			<path d="M28.526,80.23v14.263c0,1.971,1.597,3.566,3.566,3.566s3.566-1.595,3.566-3.566V80.23c0-1.971-1.597-3.566-3.566-3.566
				S28.526,78.259,28.526,80.23z"/>
			<path d="M58.098,67.012c-1.393,1.393-1.393,3.649,0,5.042l10.086,10.085c0.696,0.696,1.609,1.045,2.521,1.045
				s1.825-0.348,2.521-1.045c1.393-1.393,1.393-3.649,0-5.042L63.14,67.012C61.747,65.619,59.491,65.619,58.098,67.012z"/>
			<path d="M60.619,18.999c0.912,0,1.825-0.348,2.521-1.045L73.226,7.869c1.393-1.393,1.393-3.649,0-5.042s-3.649-1.393-5.042,0
				L58.098,12.912c-1.393,1.393-1.393,3.649,0,5.042C58.794,18.65,59.706,18.999,60.619,18.999z"/>
		</g>
	</g>
</g>
</svg>