<svg width="13" height="12" viewBox="0 0 13 12" fill="none" xmlns="http://www.w3.org/2000/svg">
<path d="M6.18516 8.82187L6.1875 8.81953L6.80625 9.15L8.80313 10.2164L8.41641 7.92891L8.30391 7.25625L8.78906 6.77578L10.432 5.15156L8.17969 4.81875L7.49297 4.71797L7.19063 4.09453L6.1875 2.03672L6.18516 2.04375V8.82187ZM10.2891 11.1258C10.3359 11.407 10.2188 11.693 9.98672 11.8594C9.75469 12.0258 9.44766 12.0469 9.19453 11.9133L6.1875 10.3078L3.18047 11.9133C2.92735 12.0469 2.62031 12.0258 2.38828 11.8594C2.15625 11.693 2.03906 11.407 2.08594 11.1258L2.66485 7.71094L0.222658 5.29453C0.0210959 5.09531 -0.0515603 4.79766 0.0375022 4.52812C0.126565 4.25859 0.358596 4.06172 0.639846 4.01953L4.00547 3.52266L5.51485 0.421875C5.64141 0.164062 5.90156 0 6.18985 0C6.47813 0 6.73828 0.164062 6.86485 0.421875L8.37188 3.52266L11.7375 4.01953C12.0188 4.06172 12.2531 4.25859 12.3398 4.52812C12.4266 4.79766 12.3563 5.09531 12.1547 5.29453L9.7125 7.71094L10.2891 11.1258Z" fill="#1D9E75"/>
</svg>
