<svg width="10" height="13" viewBox="0 0 10 13" fill="none" xmlns="http://www.w3.org/2000/svg">
<path d="M5.47676 12.675C6.7793 11.0449 9.75 7.09414 9.75 4.875C9.75 2.18359 7.56641 0 4.875 0C2.18359 0 0 2.18359 0 4.875C0 7.09414 2.9707 11.0449 4.27324 12.675C4.58555 13.0635 5.16445 13.0635 5.47676 12.675ZM4.875 3.25C5.30598 3.25 5.7193 3.4212 6.02405 3.72595C6.3288 4.0307 6.5 4.44402 6.5 4.875C6.5 5.30598 6.3288 5.7193 6.02405 6.02405C5.7193 6.3288 5.30598 6.5 4.875 6.5C4.44402 6.5 4.0307 6.3288 3.72595 6.02405C3.4212 5.7193 3.25 5.30598 3.25 4.875C3.25 4.44402 3.4212 4.0307 3.72595 3.72595C4.0307 3.4212 4.44402 3.25 4.875 3.25Z" fill="#1D9E75"/>
</svg>
