<svg width="20" height="18" viewBox="0 0 20 18" fill="none" xmlns="http://www.w3.org/2000/svg">
<path d="M10.625 2.50294C7.55469 2.50294 4.95703 4.51466 4.07422 7.2881C5.38672 6.62403 6.86719 6.25294 8.4375 6.25294H11.875C12.2188 6.25294 12.5 6.53419 12.5 6.87794C12.5 7.22169 12.2188 7.50294 11.875 7.50294H11.25H8.4375C7.78906 7.50294 7.16016 7.57716 6.55469 7.71388C5.54297 7.94435 4.60156 8.3545 3.76562 8.9131C1.49609 10.4248 0 13.0068 0 15.9404V16.5654C0 17.085 0.417969 17.5029 0.9375 17.5029C1.45703 17.5029 1.875 17.085 1.875 16.5654V15.9404C1.875 14.0381 2.68359 12.3272 3.97656 11.1279C4.75 14.0772 7.43359 16.2529 10.625 16.2529H10.6641C15.8242 16.2256 20 11.1397 20 4.87013C20 3.20607 19.707 1.62403 19.1758 0.198253C19.0742 -0.0712782 18.6797 -0.0595593 18.543 0.194347C17.8086 1.56935 16.3555 2.50294 14.6875 2.50294H10.625Z" fill="#1D9E75"/>
</svg>
